<?xml version="1.0" encoding="UTF-8" standalone="no"?>
<svg width="154px" height="23px" viewBox="0 0 154 23" version="1.1" xmlns="http://www.w3.org/2000/svg" xmlns:xlink="http://www.w3.org/1999/xlink">
    <!-- Generator: Sketch 40.3 (33839) - http://www.bohemiancoding.com/sketch -->
    <title>docker</title>
    <desc>Created with Sketch.</desc>
    <defs></defs>
    <g id="Page-1" stroke="none" stroke-width="1" fill="none" fill-rule="evenodd">
        <g id="docker">
            <rect id="Rectangle" fill="#627FFF" x="9" y="0" width="145" height="23"></rect>
            <rect id="Rectangle" fill="#555555" x="0" y="0" width="54" height="23"></rect>
            <path d="M66.672,10.988 C66.7000001,10.521331 66.8166656,10.1340015 67.022,9.826 C67.2273344,9.51799846 67.4886651,9.2706676 67.806,9.084 C68.1233349,8.8973324 68.4803313,8.76433373 68.877,8.685 C69.2736686,8.60566627 69.6726647,8.566 70.074,8.566 C70.4380018,8.566 70.8066648,8.59166641 71.18,8.643 C71.5533352,8.69433359 71.8939985,8.79466592 72.202,8.944 C72.5100015,9.09333408 72.761999,9.30099867 72.958,9.567 C73.154001,9.83300133 73.252,10.1853311 73.252,10.624 L73.252,14.39 C73.252,14.7166683 73.2706665,15.0293318 73.308,15.328 C73.3453335,15.6266682 73.4106662,15.8506659 73.504,16 L71.488,16 C71.4506665,15.8879994 71.4203334,15.7736672 71.397,15.657 C71.3736665,15.5403327 71.3573334,15.4213339 71.348,15.3 C71.0306651,15.6266683 70.6573355,15.8553327 70.228,15.986 C69.7986645,16.1166673 69.3600022,16.182 68.912,16.182 C68.5666649,16.182 68.2446682,16.1400004 67.946,16.056 C67.6473318,15.9719996 67.3860011,15.8413342 67.162,15.664 C66.9379989,15.4866658 66.7630006,15.262668 66.637,14.992 C66.5109994,14.721332 66.448,14.3993352 66.448,14.026 C66.448,13.6153313 66.5203326,13.2770013 66.665,13.011 C66.8096674,12.7449987 66.9963322,12.5326675 67.225,12.374 C67.4536678,12.2153325 67.7149985,12.0963337 68.009,12.017 C68.3030015,11.9376663 68.5993318,11.8746669 68.898,11.828 C69.1966682,11.7813331 69.4906652,11.7440001 69.78,11.716 C70.0693348,11.6879999 70.3259989,11.6460003 70.55,11.59 C70.7740011,11.5339997 70.9513327,11.4523339 71.082,11.345 C71.2126673,11.2376661 71.2733334,11.0813344 71.264,10.876 C71.264,10.6613323 71.2290003,10.4910006 71.159,10.365 C71.0889996,10.2389994 70.9956672,10.1410003 70.879,10.071 C70.7623327,10.0009996 70.6270008,9.95433345 70.473,9.931 C70.3189992,9.90766655 70.1533342,9.896 69.976,9.896 C69.583998,9.896 69.2760011,9.97999916 69.052,10.148 C68.8279989,10.3160008 68.6973335,10.595998 68.66,10.988 L66.672,10.988 Z M71.264,12.458 C71.1799996,12.532667 71.0750006,12.5909998 70.949,12.633 C70.8229994,12.6750002 70.6876674,12.7099999 70.543,12.738 C70.3983326,12.7660001 70.2466675,12.7893332 70.088,12.808 C69.9293325,12.8266668 69.7706675,12.8499999 69.612,12.878 C69.4626659,12.9060001 69.3156674,12.9433331 69.171,12.99 C69.0263326,13.0366669 68.9003339,13.0996663 68.793,13.179 C68.6856661,13.2583337 68.5993337,13.3586661 68.534,13.48 C68.4686663,13.6013339 68.436,13.7553324 68.436,13.942 C68.436,14.1193342 68.4686663,14.2686661 68.534,14.39 C68.5993337,14.5113339 68.6879994,14.6069996 68.8,14.677 C68.9120006,14.7470003 69.0426659,14.7959999 69.192,14.824 C69.3413341,14.8520001 69.4953325,14.866 69.654,14.866 C70.046002,14.866 70.3493323,14.8006673 70.564,14.67 C70.7786677,14.5393327 70.9373328,14.3830009 71.04,14.201 C71.1426672,14.0189991 71.2056665,13.8346676 71.229,13.648 C71.2523334,13.4613324 71.264,13.3120006 71.264,13.2 L71.264,12.458 Z M74.848,6.004 L74.848,16 L76.836,16 L76.836,6.004 L74.848,6.004 Z M82.058,14.698 C81.7406651,14.698 81.4700011,14.6326673 81.246,14.502 C81.0219989,14.3713327 80.842334,14.201001 80.707,13.991 C80.571666,13.7809989 80.473667,13.5360014 80.413,13.256 C80.352333,12.9759986 80.322,12.6913348 80.322,12.402 C80.322,12.1033318 80.3499997,11.8140014 80.406,11.534 C80.4620003,11.2539986 80.557666,11.0066677 80.693,10.792 C80.828334,10.5773323 81.0056656,10.402334 81.225,10.267 C81.4443344,10.131666 81.7173317,10.064 82.044,10.064 C82.3613349,10.064 82.6296656,10.131666 82.849,10.267 C83.0683344,10.402334 83.2479993,10.5796656 83.388,10.799 C83.5280007,11.0183344 83.628333,11.2679986 83.689,11.548 C83.749667,11.8280014 83.78,12.1126652 83.78,12.402 C83.78,12.6913348 83.7520003,12.9759986 83.696,13.256 C83.6399997,13.5360014 83.544334,13.7809989 83.409,13.991 C83.273666,14.201001 83.0963344,14.3713327 82.877,14.502 C82.6576656,14.6326673 82.3846683,14.698 82.058,14.698 L82.058,14.698 Z M78.404,8.762 L78.404,18.534 L80.392,18.534 L80.392,15.104 L80.42,15.104 C80.6626679,15.4586684 80.9729981,15.7269991 81.351,15.909 C81.7290019,16.0910009 82.1419978,16.182 82.59,16.182 C83.1220027,16.182 83.5863313,16.0793344 83.983,15.874 C84.3796686,15.6686656 84.7109987,15.3933351 84.977,15.048 C85.2430013,14.7026649 85.4413327,14.3060022 85.572,13.858 C85.7026673,13.4099978 85.768,12.9433358 85.768,12.458 C85.768,11.9446641 85.7026673,11.4523357 85.572,10.981 C85.4413327,10.5096643 85.240668,10.0966684 84.97,9.742 C84.699332,9.38733156 84.3586687,9.10266774 83.948,8.888 C83.5373313,8.67333226 83.0473362,8.566 82.478,8.566 C82.0299978,8.566 81.6193352,8.65466578 81.246,8.832 C80.8726648,9.00933422 80.5646679,9.29399804 80.322,9.686 L80.294,9.686 L80.294,8.762 L78.404,8.762 Z M89.002,7.642 L89.002,6.004 L87.014,6.004 L87.014,7.642 L89.002,7.642 Z M87.014,8.762 L87.014,16 L89.002,16 L89.002,8.762 L87.014,8.762 Z M90.57,8.762 L90.57,16 L92.558,16 L92.558,12.206 C92.558,11.468663 92.6793321,10.9390016 92.922,10.617 C93.1646679,10.2949984 93.556664,10.134 94.098,10.134 C94.5740024,10.134 94.9053324,10.2809985 95.092,10.575 C95.2786676,10.8690015 95.372,11.3146637 95.372,11.912 L95.372,16 L97.36,16 L97.36,11.548 C97.36,11.0999978 97.3203337,10.6916685 97.241,10.323 C97.1616663,9.95433149 97.024001,9.64166795 96.828,9.385 C96.631999,9.12833205 96.3636684,8.92766739 96.023,8.783 C95.6823316,8.63833261 95.2460027,8.566 94.714,8.566 C94.2939979,8.566 93.8833353,8.66166571 93.482,8.853 C93.0806647,9.04433429 92.7540013,9.3499979 92.502,9.77 L92.46,9.77 L92.46,8.762 L90.57,8.762 Z M103.744,11.604 L100.51,11.604 C100.519333,11.4639993 100.549666,11.3053342 100.601,11.128 C100.652334,10.9506658 100.740999,10.7826675 100.867,10.624 C100.993001,10.4653325 101.160999,10.3323339 101.371,10.225 C101.581001,10.1176661 101.844665,10.064 102.162,10.064 C102.647336,10.064 103.008999,10.1946654 103.247,10.456 C103.485001,10.7173346 103.650666,11.0999975 103.744,11.604 L103.744,11.604 Z M100.51,12.864 L105.732,12.864 C105.769334,12.3039972 105.722667,11.7673359 105.592,11.254 C105.461333,10.7406641 105.249001,10.2833353 104.955,9.882 C104.660999,9.48066466 104.285336,9.16100119 103.828,8.923 C103.370664,8.68499881 102.834003,8.566 102.218,8.566 C101.667331,8.566 101.165669,8.66399902 100.713,8.86 C100.260331,9.05600098 99.8706683,9.32433163 99.544,9.665 C99.2173317,10.0056684 98.9653342,10.409331 98.788,10.876 C98.6106658,11.342669 98.522,11.846664 98.522,12.388 C98.522,12.9480028 98.6083325,13.461331 98.781,13.928 C98.9536675,14.394669 99.1986651,14.7959983 99.516,15.132 C99.8333349,15.4680017 100.220664,15.7269991 100.678,15.909 C101.135336,16.0910009 101.648664,16.182 102.218,16.182 C103.039337,16.182 103.73933,15.9953352 104.318,15.622 C104.89667,15.2486648 105.325999,14.6280043 105.606,13.76 L103.856,13.76 C103.790666,13.9840011 103.613335,14.1963323 103.324,14.397 C103.034665,14.5976677 102.689335,14.698 102.288,14.698 C101.727997,14.698 101.298668,14.5533348 101,14.264 C100.701332,13.9746652 100.538,13.5080032 100.51,12.864 L100.51,12.864 Z M110.856,6.004 L110.856,16 L112.844,16 L112.844,6.004 L110.856,6.004 Z M116.456,7.642 L116.456,6.004 L114.468,6.004 L114.468,7.642 L116.456,7.642 Z M114.468,8.762 L114.468,16 L116.456,16 L116.456,8.762 L114.468,8.762 Z M118.024,8.762 L118.024,16 L120.012,16 L120.012,12.206 C120.012,11.468663 120.133332,10.9390016 120.376,10.617 C120.618668,10.2949984 121.010664,10.134 121.552,10.134 C122.028002,10.134 122.359332,10.2809985 122.546,10.575 C122.732668,10.8690015 122.826,11.3146637 122.826,11.912 L122.826,16 L124.814,16 L124.814,11.548 C124.814,11.0999978 124.774334,10.6916685 124.695,10.323 C124.615666,9.95433149 124.478001,9.64166795 124.282,9.385 C124.085999,9.12833205 123.817668,8.92766739 123.477,8.783 C123.136332,8.63833261 122.700003,8.566 122.168,8.566 C121.747998,8.566 121.337335,8.66166571 120.936,8.853 C120.534665,9.04433429 120.208001,9.3499979 119.956,9.77 L119.914,9.77 L119.914,8.762 L118.024,8.762 Z M133.116,16 L133.116,8.762 L131.128,8.762 L131.128,12.556 C131.128,13.293337 131.006668,13.8229984 130.764,14.145 C130.521332,14.4670016 130.129336,14.628 129.588,14.628 C129.111998,14.628 128.780668,14.4810015 128.594,14.187 C128.407332,13.8929985 128.314,13.4473363 128.314,12.85 L128.314,8.762 L126.326,8.762 L126.326,13.214 C126.326,13.6620022 126.365666,14.0703315 126.445,14.439 C126.524334,14.8076685 126.661999,15.120332 126.858,15.377 C127.054001,15.6336679 127.322332,15.8319993 127.663,15.972 C128.003668,16.1120007 128.439997,16.182 128.972,16.182 C129.392002,16.182 129.802665,16.0886676 130.204,15.902 C130.605335,15.7153324 130.931999,15.4120021 131.184,14.992 L131.226,14.992 L131.226,16 L133.116,16 Z M136.476,12.192 L133.872,16 L136.098,16 L137.61,13.718 L139.122,16 L141.39,16 L138.716,12.15 L141.096,8.762 L138.898,8.762 L137.638,10.652 L136.364,8.762 L134.096,8.762 L136.476,12.192 Z" id="alpine-linux-copy" fill="#FFFFFF"></path>
            <path d="M14.19,10.092 L14.19,16 L16.178,16 L16.178,10.092 L17.55,10.092 L17.55,8.762 L16.178,8.762 L16.178,8.328 C16.178,8.02933184 16.2363327,7.81700063 16.353,7.691 C16.4696673,7.56499937 16.663332,7.502 16.934,7.502 C17.1860013,7.502 17.4286655,7.51599986 17.662,7.544 L17.662,6.06 C17.4939992,6.05066662 17.3213342,6.03900007 17.144,6.025 C16.9666658,6.01099993 16.7893342,6.004 16.612,6.004 C15.7999959,6.004 15.1933353,6.20933128 14.792,6.62 C14.3906647,7.03066872 14.19,7.55799678 14.19,8.202 L14.19,8.762 L13,8.762 L13,10.092 L14.19,10.092 Z M18.418,8.762 L18.418,16 L20.406,16 L20.406,12.738 C20.406,12.4113317 20.4386663,12.1080014 20.504,11.828 C20.5693337,11.5479986 20.6789992,11.303001 20.833,11.093 C20.9870008,10.8829989 21.1899987,10.7173339 21.442,10.596 C21.6940013,10.4746661 22.0019982,10.414 22.366,10.414 C22.4873339,10.414 22.6133327,10.4209999 22.744,10.435 C22.8746673,10.4490001 22.9866662,10.4653332 23.08,10.484 L23.08,8.636 C22.9213325,8.5893331 22.7766673,8.566 22.646,8.566 C22.3939987,8.566 22.1513345,8.60333296 21.918,8.678 C21.6846655,8.75266704 21.4653344,8.85766599 21.26,8.993 C21.0546656,9.12833401 20.8726675,9.29166571 20.714,9.483 C20.5553325,9.67433429 20.4293338,9.88199888 20.336,10.106 L20.308,10.106 L20.308,8.762 L18.418,8.762 Z M25.376,12.388 C25.376,12.0986652 25.4039997,11.8140014 25.46,11.534 C25.5160003,11.2539986 25.611666,11.0066677 25.747,10.792 C25.882334,10.5773323 26.0619989,10.402334 26.286,10.267 C26.5100011,10.131666 26.7899983,10.064 27.126,10.064 C27.4620017,10.064 27.7443322,10.131666 27.973,10.267 C28.2016678,10.402334 28.383666,10.5773323 28.519,10.792 C28.654334,11.0066677 28.7499997,11.2539986 28.806,11.534 C28.8620003,11.8140014 28.89,12.0986652 28.89,12.388 C28.89,12.6773348 28.8620003,12.9596653 28.806,13.235 C28.7499997,13.5103347 28.654334,13.7576656 28.519,13.977 C28.383666,14.1963344 28.2016678,14.3713327 27.973,14.502 C27.7443322,14.6326673 27.4620017,14.698 27.126,14.698 C26.7899983,14.698 26.5100011,14.6326673 26.286,14.502 C26.0619989,14.3713327 25.882334,14.1963344 25.747,13.977 C25.611666,13.7576656 25.5160003,13.5103347 25.46,13.235 C25.4039997,12.9596653 25.376,12.6773348 25.376,12.388 L25.376,12.388 Z M23.388,12.388 C23.388,12.9666696 23.4766658,13.489331 23.654,13.956 C23.8313342,14.422669 24.0833317,14.821665 24.41,15.153 C24.7366683,15.484335 25.1286644,15.7386658 25.586,15.916 C26.0433356,16.0933342 26.5566638,16.182 27.126,16.182 C27.6953362,16.182 28.2109977,16.0933342 28.673,15.916 C29.1350023,15.7386658 29.5293317,15.484335 29.856,15.153 C30.1826683,14.821665 30.4346658,14.422669 30.612,13.956 C30.7893342,13.489331 30.878,12.9666696 30.878,12.388 C30.878,11.8093304 30.7893342,11.2843357 30.612,10.813 C30.4346658,10.3416643 30.1826683,9.94033499 29.856,9.609 C29.5293317,9.27766501 29.1350023,9.02100091 28.673,8.839 C28.2109977,8.65699909 27.6953362,8.566 27.126,8.566 C26.5566638,8.566 26.0433356,8.65699909 25.586,8.839 C25.1286644,9.02100091 24.7366683,9.27766501 24.41,9.609 C24.0833317,9.94033499 23.8313342,10.3416643 23.654,10.813 C23.4766658,11.2843357 23.388,11.8093304 23.388,12.388 L23.388,12.388 Z M32.222,8.762 L32.222,16 L34.21,16 L34.21,11.8 C34.21,11.4453316 34.2613328,11.1583344 34.364,10.939 C34.4666672,10.7196656 34.5903326,10.5516672 34.735,10.435 C34.8796674,10.3183327 35.0289992,10.2390002 35.183,10.197 C35.3370008,10.1549998 35.4606662,10.134 35.554,10.134 C35.8713349,10.134 36.1116659,10.1876661 36.275,10.295 C36.4383342,10.4023339 36.5549996,10.5446658 36.625,10.722 C36.6950004,10.8993342 36.7346666,11.0929989 36.744,11.303 C36.7533334,11.513001 36.758,11.7253323 36.758,11.94 L36.758,16 L38.746,16 L38.746,11.968 C38.746,11.7439989 38.7623332,11.5223344 38.795,11.303 C38.8276668,11.0836656 38.8929995,10.8876675 38.991,10.715 C39.0890005,10.5423325 39.2243325,10.4023339 39.397,10.295 C39.5696675,10.1876661 39.7959986,10.134 40.076,10.134 C40.3560014,10.134 40.5776659,10.1806662 40.741,10.274 C40.9043341,10.3673338 41.0279996,10.4933325 41.112,10.652 C41.1960004,10.8106675 41.2473332,10.9973323 41.266,11.212 C41.2846668,11.4266677 41.294,11.6553321 41.294,11.898 L41.294,16 L43.282,16 L43.282,11.156 C43.282,10.689331 43.2166673,10.290335 43.086,9.959 C42.9553327,9.62766501 42.7733345,9.35933436 42.54,9.154 C42.3066655,8.94866564 42.0266683,8.7993338 41.7,8.706 C41.3733317,8.6126662 41.0186686,8.566 40.636,8.566 C40.1319975,8.566 39.6956685,8.68733212 39.327,8.93 C38.9583315,9.17266788 38.6666677,9.45266508 38.452,9.77 C38.255999,9.32199776 37.9690019,9.00933422 37.591,8.832 C37.2129981,8.65466578 36.7953356,8.566 36.338,8.566 C35.8619976,8.566 35.4396685,8.66866564 35.071,8.874 C34.7023315,9.07933436 34.3873346,9.3686648 34.126,9.742 L34.098,9.742 L34.098,8.762 L32.222,8.762 Z" id="from" fill="#FFFFFF"></path>
        </g>
    </g>
</svg>