<?xml version="1.0" encoding="UTF-8" standalone="no"?>
<svg width="145px" height="23px" viewBox="0 0 145 23" version="1.1" xmlns="http://www.w3.org/2000/svg" xmlns:xlink="http://www.w3.org/1999/xlink">
    <!-- Generator: Sketch 40.3 (33839) - http://www.bohemiancoding.com/sketch -->
    <title>docker</title>
    <desc>Created with Sketch.</desc>
    <defs></defs>
    <g id="Page-1" stroke="none" stroke-width="1" fill="none" fill-rule="evenodd">
        <g id="docker">
            <rect id="Rectangle" fill="#627FFF" x="0" y="0" width="145" height="23"></rect>
            <rect id="Rectangle" fill="#555555" x="0" y="0" width="72" height="23"></rect>
            <path d="M93.488,16 L93.488,6.2 L91.906,6.2 C91.8499997,6.5733352 91.7333342,6.88599874 91.556,7.138 C91.3786658,7.39000126 91.1616679,7.59299923 90.905,7.747 C90.648332,7.90100077 90.3590016,8.00833303 90.037,8.069 C89.7149984,8.12966697 89.3813351,8.15533338 89.036,8.146 L89.036,9.644 L91.5,9.644 L91.5,16 L93.488,16 Z M99.564,11.282 C99.3119987,11.282 99.0903343,11.2283339 98.899,11.121 C98.7076657,11.0136661 98.5513339,10.8736675 98.43,10.701 C98.3086661,10.5283325 98.217667,10.3323344 98.157,10.113 C98.096333,9.89366557 98.066,9.6673345 98.066,9.434 C98.066,9.20999888 98.0986663,8.99066774 98.164,8.776 C98.2293337,8.56133226 98.3273327,8.37000084 98.458,8.202 C98.5886673,8.03399916 98.7473324,7.89866718 98.934,7.796 C99.1206676,7.69333282 99.3306655,7.642 99.564,7.642 C99.8160013,7.642 100.039999,7.69333282 100.236,7.796 C100.432001,7.89866718 100.597666,8.03633247 100.733,8.209 C100.868334,8.38166753 100.971,8.57766557 101.041,8.797 C101.111,9.01633443 101.146,9.23799888 101.146,9.462 C101.146,9.70466788 101.113334,9.93566557 101.048,10.155 C100.982666,10.3743344 100.884667,10.5679992 100.754,10.736 C100.623333,10.9040008 100.460001,11.0369995 100.264,11.135 C100.067999,11.2330005 99.834668,11.282 99.564,11.282 L99.564,11.282 Z M98.136,13.48 L96.246,13.48 C96.3020003,13.9093355 96.4186658,14.2919983 96.596,14.628 C96.7733342,14.9640017 97.0019986,15.2486655 97.282,15.482 C97.5620014,15.7153345 97.8839982,15.8903327 98.248,16.007 C98.6120018,16.1236672 99.0039979,16.182 99.424,16.182 C100.124004,16.182 100.716664,16.0303348 101.202,15.727 C101.687336,15.4236651 102.083998,15.0270024 102.392,14.537 C102.700002,14.0469975 102.923999,13.4986697 103.064,12.892 C103.204001,12.2853303 103.274,11.6786697 103.274,11.072 C103.274,10.4559969 103.218001,9.8446697 103.106,9.238 C102.993999,8.6313303 102.793335,8.08766907 102.504,7.607 C102.214665,7.12633093 101.829669,6.73900147 101.349,6.445 C100.868331,6.15099853 100.25467,6.004 99.508,6.004 C98.9946641,6.004 98.5280021,6.0973324 98.108,6.284 C97.6879979,6.4706676 97.3263348,6.72499839 97.023,7.047 C96.7196651,7.36900161 96.4863342,7.74699783 96.323,8.181 C96.1596658,8.61500217 96.078,9.08399748 96.078,9.588 C96.078,9.98000196 96.1386661,10.3673314 96.26,10.75 C96.3813339,11.1326686 96.5726654,11.4733318 96.834,11.772 C97.1140014,12.0800015 97.4546647,12.3249991 97.856,12.507 C98.2573353,12.6890009 98.6679979,12.78 99.088,12.78 C99.5640024,12.78 99.9839982,12.6960008 100.348,12.528 C100.712002,12.3599992 101.029332,12.080002 101.3,11.688 L101.328,11.716 C101.309333,11.986668 101.269667,12.2946649 101.209,12.64 C101.148333,12.9853351 101.048001,13.3096651 100.908,13.613 C100.767999,13.9163348 100.581334,14.1729989 100.348,14.383 C100.114666,14.593001 99.8160018,14.698 99.452,14.698 C99.1066649,14.698 98.8173345,14.5766679 98.584,14.334 C98.3506655,14.0913321 98.2013337,13.8066683 98.136,13.48 L98.136,13.48 Z M108.426,6.004 L108.426,16 L110.484,16 L110.484,8.986 L110.512,8.986 L112.962,16 L114.656,16 L117.106,8.916 L117.134,8.916 L117.134,16 L119.192,16 L119.192,6.004 L116.098,6.004 L113.886,12.878 L113.858,12.878 L111.52,6.004 L108.426,6.004 Z M123.322,10.05 L123.322,7.712 L125.38,7.712 C125.576001,7.712 125.764999,7.72833317 125.947,7.761 C126.129001,7.79366683 126.289999,7.85199958 126.43,7.936 C126.570001,8.02000042 126.682,8.13666592 126.766,8.286 C126.85,8.43533408 126.892,8.6266655 126.892,8.86 C126.892,9.2800021 126.766001,9.5833324 126.514,9.77 C126.261999,9.9566676 125.940002,10.05 125.548,10.05 L123.322,10.05 Z M121.124,6.004 L121.124,16 L125.968,16 C126.416002,16 126.852331,15.9440006 127.277,15.832 C127.701669,15.7199994 128.079665,15.5473345 128.411,15.314 C128.742335,15.0806655 129.005999,14.7796685 129.202,14.411 C129.398001,14.0423315 129.496,13.6060025 129.496,13.102 C129.496,12.4766635 129.344335,11.9423355 129.041,11.499 C128.737665,11.0556644 128.278003,10.7453342 127.662,10.568 C128.110002,10.3533323 128.448332,10.0780017 128.677,9.742 C128.905668,9.40599832 129.02,8.98600252 129.02,8.482 C129.02,8.015331 128.943001,7.62333492 128.789,7.306 C128.634999,6.98866508 128.418001,6.73433429 128.138,6.543 C127.857999,6.35166571 127.522002,6.21400042 127.13,6.13 C126.737998,6.04599958 126.304002,6.004 125.828,6.004 L121.124,6.004 Z M123.322,14.292 L123.322,11.548 L125.716,11.548 C126.192002,11.548 126.574665,11.6576656 126.864,11.877 C127.153335,12.0963344 127.298,12.4626641 127.298,12.976 C127.298,13.2373346 127.253667,13.4519992 127.165,13.62 C127.076333,13.7880008 126.957334,13.9209995 126.808,14.019 C126.658666,14.1170005 126.486001,14.1869998 126.29,14.229 C126.093999,14.2710002 125.888668,14.292 125.674,14.292 L123.322,14.292 Z" id="19-MB-Copy" fill="#FFFFFF"></path>
            <path d="M19.8,7.642 L19.8,6.004 L17.812,6.004 L17.812,7.642 L19.8,7.642 Z M17.812,8.762 L17.812,16 L19.8,16 L19.8,8.762 L17.812,8.762 Z M21.424,8.762 L21.424,16 L23.412,16 L23.412,11.8 C23.412,11.4453316 23.4633328,11.1583344 23.566,10.939 C23.6686672,10.7196656 23.7923326,10.5516672 23.937,10.435 C24.0816674,10.3183327 24.2309992,10.2390002 24.385,10.197 C24.5390008,10.1549998 24.6626662,10.134 24.756,10.134 C25.0733349,10.134 25.3136659,10.1876661 25.477,10.295 C25.6403342,10.4023339 25.7569997,10.5446658 25.827,10.722 C25.8970004,10.8993342 25.9366666,11.0929989 25.946,11.303 C25.9553334,11.513001 25.96,11.7253323 25.96,11.94 L25.96,16 L27.948,16 L27.948,11.968 C27.948,11.7439989 27.9643332,11.5223344 27.997,11.303 C28.0296668,11.0836656 28.0949995,10.8876675 28.193,10.715 C28.2910005,10.5423325 28.4263325,10.4023339 28.599,10.295 C28.7716675,10.1876661 28.9979986,10.134 29.278,10.134 C29.5580014,10.134 29.7796659,10.1806662 29.943,10.274 C30.1063342,10.3673338 30.2299996,10.4933325 30.314,10.652 C30.3980004,10.8106675 30.4493332,10.9973323 30.468,11.212 C30.4866668,11.4266677 30.496,11.6553321 30.496,11.898 L30.496,16 L32.484,16 L32.484,11.156 C32.484,10.689331 32.4186673,10.290335 32.288,9.959 C32.1573327,9.62766501 31.9753345,9.35933436 31.742,9.154 C31.5086655,8.94866564 31.2286683,8.7993338 30.902,8.706 C30.5753317,8.6126662 30.2206686,8.566 29.838,8.566 C29.3339975,8.566 28.8976685,8.68733212 28.529,8.93 C28.1603315,9.17266788 27.8686677,9.45266508 27.654,9.77 C27.457999,9.32199776 27.1710019,9.00933422 26.793,8.832 C26.4149981,8.65466578 25.9973356,8.566 25.54,8.566 C25.0639976,8.566 24.6416685,8.66866564 24.273,8.874 C23.9043315,9.07933436 23.5893346,9.3686648 23.328,9.742 L23.3,9.742 L23.3,8.762 L21.424,8.762 Z M33.968,10.988 C33.9960001,10.521331 34.1126656,10.1340015 34.318,9.826 C34.5233344,9.51799846 34.7846651,9.2706676 35.102,9.084 C35.4193349,8.8973324 35.7763314,8.76433373 36.173,8.685 C36.5696687,8.60566627 36.9686647,8.566 37.37,8.566 C37.7340018,8.566 38.1026648,8.59166641 38.476,8.643 C38.8493352,8.69433359 39.1899985,8.79466592 39.498,8.944 C39.8060015,9.09333408 40.057999,9.30099867 40.254,9.567 C40.450001,9.83300133 40.548,10.1853311 40.548,10.624 L40.548,14.39 C40.548,14.7166683 40.5666665,15.0293318 40.604,15.328 C40.6413335,15.6266682 40.7066662,15.8506659 40.8,16 L38.784,16 C38.7466665,15.8879994 38.7163335,15.7736672 38.693,15.657 C38.6696666,15.5403327 38.6533334,15.4213339 38.644,15.3 C38.3266651,15.6266683 37.9533355,15.8553327 37.524,15.986 C37.0946645,16.1166673 36.6560022,16.182 36.208,16.182 C35.8626649,16.182 35.5406682,16.1400004 35.242,16.056 C34.9433318,15.9719996 34.6820011,15.8413342 34.458,15.664 C34.2339989,15.4866658 34.0590006,15.262668 33.933,14.992 C33.8069994,14.721332 33.744,14.3993352 33.744,14.026 C33.744,13.6153313 33.8163326,13.2770013 33.961,13.011 C34.1056674,12.7449987 34.2923322,12.5326675 34.521,12.374 C34.7496678,12.2153325 35.0109985,12.0963337 35.305,12.017 C35.5990015,11.9376663 35.8953318,11.8746669 36.194,11.828 C36.4926682,11.7813331 36.7866652,11.7440001 37.076,11.716 C37.3653348,11.6879999 37.6219989,11.6460003 37.846,11.59 C38.0700011,11.5339997 38.2473327,11.4523339 38.378,11.345 C38.5086673,11.2376661 38.5693334,11.0813344 38.56,10.876 C38.56,10.6613323 38.5250004,10.4910006 38.455,10.365 C38.3849997,10.2389994 38.2916673,10.1410003 38.175,10.071 C38.0583328,10.0009996 37.9230008,9.95433345 37.769,9.931 C37.6149992,9.90766655 37.4493342,9.896 37.272,9.896 C36.879998,9.896 36.5720011,9.97999916 36.348,10.148 C36.1239989,10.3160008 35.9933335,10.595998 35.956,10.988 L33.968,10.988 Z M38.56,12.458 C38.4759996,12.532667 38.3710006,12.5909998 38.245,12.633 C38.1189994,12.6750002 37.9836674,12.7099999 37.839,12.738 C37.6943326,12.7660001 37.5426675,12.7893332 37.384,12.808 C37.2253325,12.8266668 37.0666675,12.8499999 36.908,12.878 C36.7586659,12.9060001 36.6116674,12.9433331 36.467,12.99 C36.3223326,13.0366669 36.1963339,13.0996663 36.089,13.179 C35.9816661,13.2583337 35.8953337,13.3586661 35.83,13.48 C35.7646663,13.6013339 35.732,13.7553324 35.732,13.942 C35.732,14.1193342 35.7646663,14.2686661 35.83,14.39 C35.8953337,14.5113339 35.9839994,14.6069996 36.096,14.677 C36.2080006,14.7470003 36.3386659,14.7959999 36.488,14.824 C36.6373341,14.8520001 36.7913325,14.866 36.95,14.866 C37.342002,14.866 37.6453323,14.8006673 37.86,14.67 C38.0746677,14.5393327 38.2333328,14.3830009 38.336,14.201 C38.4386672,14.0189991 38.5016666,13.8346676 38.525,13.648 C38.5483335,13.4613324 38.56,13.3120006 38.56,13.2 L38.56,12.458 Z M45.462,14.292 C45.1539985,14.292 44.8973344,14.2266673 44.692,14.096 C44.4866656,13.9653327 44.3210006,13.7973344 44.195,13.592 C44.0689994,13.3866656 43.9803336,13.1556679 43.929,12.899 C43.8776664,12.642332 43.852,12.3833346 43.852,12.122 C43.852,11.851332 43.882333,11.5923346 43.943,11.345 C44.003667,11.0976654 44.101666,10.8783343 44.237,10.687 C44.372334,10.4956657 44.5403323,10.3440006 44.741,10.232 C44.9416677,10.1199994 45.1819986,10.064 45.462,10.064 C45.7886683,10.064 46.0593323,10.1246661 46.274,10.246 C46.4886677,10.3673339 46.6613327,10.5306656 46.792,10.736 C46.9226673,10.9413344 47.0159997,11.1769987 47.072,11.443 C47.1280003,11.7090013 47.156,11.9913318 47.156,12.29 C47.156,12.5513346 47.1210004,12.8009988 47.051,13.039 C46.9809997,13.2770012 46.8760007,13.4893324 46.736,13.676 C46.5959993,13.8626676 46.4186677,14.0119994 46.204,14.124 C45.9893323,14.2360006 45.7420014,14.292 45.462,14.292 L45.462,14.292 Z M49.046,15.538 L49.046,8.762 L47.156,8.762 L47.156,9.728 L47.128,9.728 C46.8853321,9.3079979 46.5843351,9.00933422 46.225,8.832 C45.8656649,8.65466578 45.4480024,8.566 44.972,8.566 C44.4679975,8.566 44.0223353,8.66399902 43.635,8.86 C43.2476647,9.05600098 42.9233346,9.31966501 42.662,9.651 C42.4006654,9.98233499 42.202334,10.3649978 42.067,10.799 C41.931666,11.2330022 41.864,11.683331 41.864,12.15 C41.864,12.6446691 41.9223328,13.1136644 42.039,13.557 C42.1556673,14.0003355 42.3399987,14.387665 42.592,14.719 C42.8440013,15.050335 43.165998,15.3116657 43.558,15.503 C43.950002,15.6943343 44.416664,15.79 44.958,15.79 C45.3966689,15.79 45.8143314,15.6990009 46.211,15.517 C46.6076687,15.3349991 46.9133323,15.0526686 47.128,14.67 L47.156,14.67 L47.156,15.622 C47.1653334,16.1353359 47.041668,16.5599983 46.785,16.896 C46.5283321,17.2320017 46.1200028,17.4 45.56,17.4 C45.2053316,17.4 44.892668,17.3276674 44.622,17.183 C44.351332,17.0383326 44.1693338,16.7793352 44.076,16.406 L42.102,16.406 C42.1300001,16.8166687 42.2443323,17.1689985 42.445,17.463 C42.6456677,17.7570015 42.8976652,17.9973324 43.201,18.184 C43.5043349,18.3706676 43.8403315,18.5083329 44.209,18.597 C44.5776685,18.6856671 44.9393316,18.73 45.294,18.73 C46.1246708,18.73 46.7873309,18.6180011 47.282,18.394 C47.7766691,18.1699989 48.1546654,17.8970016 48.416,17.575 C48.6773346,17.2529984 48.8476663,16.9053352 48.927,16.532 C49.0063337,16.1586648 49.046,15.8273348 49.046,15.538 L49.046,15.538 Z M55.514,11.604 L52.28,11.604 C52.2893334,11.4639993 52.3196664,11.3053342 52.371,11.128 C52.4223336,10.9506658 52.5109994,10.7826675 52.637,10.624 C52.7630006,10.4653325 52.930999,10.3323339 53.141,10.225 C53.3510011,10.1176661 53.6146651,10.064 53.932,10.064 C54.4173358,10.064 54.7789988,10.1946654 55.017,10.456 C55.2550012,10.7173346 55.4206662,11.0999975 55.514,11.604 L55.514,11.604 Z M52.28,12.864 L57.502,12.864 C57.5393335,12.3039972 57.4926673,11.7673359 57.362,11.254 C57.2313327,10.7406641 57.0190015,10.2833353 56.725,9.882 C56.4309985,9.48066466 56.0553356,9.16100119 55.598,8.923 C55.1406644,8.68499881 54.6040031,8.566 53.988,8.566 C53.4373306,8.566 52.9356689,8.66399902 52.483,8.86 C52.0303311,9.05600098 51.6406683,9.32433163 51.314,9.665 C50.9873317,10.0056684 50.7353342,10.409331 50.558,10.876 C50.3806658,11.342669 50.292,11.846664 50.292,12.388 C50.292,12.9480028 50.3783325,13.461331 50.551,13.928 C50.7236675,14.394669 50.9686651,14.7959983 51.286,15.132 C51.6033349,15.4680017 51.9906644,15.7269991 52.448,15.909 C52.9053356,16.0910009 53.4186638,16.182 53.988,16.182 C54.8093374,16.182 55.5093304,15.9953352 56.088,15.622 C56.6666696,15.2486648 57.0959986,14.6280043 57.376,13.76 L55.626,13.76 C55.5606663,13.9840011 55.3833348,14.1963323 55.094,14.397 C54.8046652,14.5976677 54.4593353,14.698 54.058,14.698 C53.4979972,14.698 53.0686682,14.5533348 52.77,14.264 C52.4713318,13.9746652 52.3080001,13.5080032 52.28,12.864 L52.28,12.864 Z" id="image" fill="#FFFFFF"></path>
        </g>
    </g>
</svg>