<?xml version="1.0" encoding="UTF-8" standalone="no"?>
<svg width="134px" height="23px" viewBox="0 0 134 23" version="1.1" xmlns="http://www.w3.org/2000/svg" xmlns:xlink="http://www.w3.org/1999/xlink">
    <!-- Generator: Sketch 40.3 (33839) - http://www.bohemiancoding.com/sketch -->
    <title>docker</title>
    <desc>Created with Sketch.</desc>
    <defs></defs>
    <g id="Page-1" stroke="none" stroke-width="1" fill="none" fill-rule="evenodd">
        <g id="docker">
            <rect id="Rectangle" fill="#40B45B" x="9" y="0" width="125" height="23"></rect>
            <rect id="Rectangle" fill="#555555" x="0" y="0" width="54" height="23"></rect>
            <path d="M64.756,8.762 L64.756,16 L66.744,16 L66.744,12.206 C66.744,11.468663 66.8653321,10.9390016 67.108,10.617 C67.3506679,10.2949984 67.742664,10.134 68.284,10.134 C68.7600024,10.134 69.0913324,10.2809985 69.278,10.575 C69.4646676,10.8690015 69.558,11.3146637 69.558,11.912 L69.558,16 L71.546,16 L71.546,11.548 C71.546,11.0999978 71.5063337,10.6916685 71.427,10.323 C71.3476663,9.95433149 71.210001,9.64166795 71.014,9.385 C70.817999,9.12833205 70.5496684,8.92766739 70.209,8.783 C69.8683316,8.63833261 69.4320027,8.566 68.9,8.566 C68.4799979,8.566 68.0693353,8.66166571 67.668,8.853 C67.2666647,9.04433429 66.9400013,9.3499979 66.688,9.77 L66.646,9.77 L66.646,8.762 L64.756,8.762 Z M74.822,12.388 C74.822,12.0986652 74.8499997,11.8140014 74.906,11.534 C74.9620003,11.2539986 75.057666,11.0066677 75.193,10.792 C75.328334,10.5773323 75.5079989,10.402334 75.732,10.267 C75.9560011,10.131666 76.2359983,10.064 76.572,10.064 C76.9080017,10.064 77.1903322,10.131666 77.419,10.267 C77.6476678,10.402334 77.829666,10.5773323 77.965,10.792 C78.100334,11.0066677 78.1959997,11.2539986 78.252,11.534 C78.3080003,11.8140014 78.336,12.0986652 78.336,12.388 C78.336,12.6773348 78.3080003,12.9596653 78.252,13.235 C78.1959997,13.5103347 78.100334,13.7576656 77.965,13.977 C77.829666,14.1963344 77.6476678,14.3713327 77.419,14.502 C77.1903322,14.6326673 76.9080017,14.698 76.572,14.698 C76.2359983,14.698 75.9560011,14.6326673 75.732,14.502 C75.5079989,14.3713327 75.328334,14.1963344 75.193,13.977 C75.057666,13.7576656 74.9620003,13.5103347 74.906,13.235 C74.8499997,12.9596653 74.822,12.6773348 74.822,12.388 L74.822,12.388 Z M72.834,12.388 C72.834,12.9666696 72.9226658,13.489331 73.1,13.956 C73.2773342,14.422669 73.5293317,14.821665 73.856,15.153 C74.1826683,15.484335 74.5746644,15.7386658 75.032,15.916 C75.4893356,16.0933342 76.0026638,16.182 76.572,16.182 C77.1413362,16.182 77.6569977,16.0933342 78.119,15.916 C78.5810023,15.7386658 78.9753317,15.484335 79.302,15.153 C79.6286683,14.821665 79.8806658,14.422669 80.058,13.956 C80.2353342,13.489331 80.324,12.9666696 80.324,12.388 C80.324,11.8093304 80.2353342,11.2843357 80.058,10.813 C79.8806658,10.3416643 79.6286683,9.94033499 79.302,9.609 C78.9753317,9.27766501 78.5810023,9.02100091 78.119,8.839 C77.6569977,8.65699909 77.1413362,8.566 76.572,8.566 C76.0026638,8.566 75.4893356,8.65699909 75.032,8.839 C74.5746644,9.02100091 74.1826683,9.27766501 73.856,9.609 C73.5293317,9.94033499 73.2773342,10.3416643 73.1,10.813 C72.9226658,11.2843357 72.834,11.8093304 72.834,12.388 L72.834,12.388 Z M81.612,8.762 L81.612,16 L83.6,16 L83.6,12.206 C83.6,11.468663 83.7213321,10.9390016 83.964,10.617 C84.2066679,10.2949984 84.598664,10.134 85.14,10.134 C85.6160024,10.134 85.9473324,10.2809985 86.134,10.575 C86.3206676,10.8690015 86.414,11.3146637 86.414,11.912 L86.414,16 L88.402,16 L88.402,11.548 C88.402,11.0999978 88.3623337,10.6916685 88.283,10.323 C88.2036663,9.95433149 88.066001,9.64166795 87.87,9.385 C87.673999,9.12833205 87.4056684,8.92766739 87.065,8.783 C86.7243316,8.63833261 86.2880027,8.566 85.756,8.566 C85.3359979,8.566 84.9253353,8.66166571 84.524,8.853 C84.1226647,9.04433429 83.7960013,9.3499979 83.544,9.77 L83.502,9.77 L83.502,8.762 L81.612,8.762 Z M89.9,11.324 L89.9,13.032 L94.114,13.032 L94.114,11.324 L89.9,11.324 Z M95.612,8.762 L95.612,16 L97.6,16 L97.6,12.738 C97.6,12.4113317 97.6326663,12.1080014 97.698,11.828 C97.7633337,11.5479986 97.8729992,11.3030011 98.027,11.093 C98.1810008,10.882999 98.3839987,10.7173339 98.636,10.596 C98.8880013,10.4746661 99.1959982,10.414 99.56,10.414 C99.6813339,10.414 99.8073327,10.4209999 99.938,10.435 C100.068667,10.4490001 100.180666,10.4653332 100.274,10.484 L100.274,8.636 C100.115333,8.5893331 99.9706673,8.566 99.84,8.566 C99.5879987,8.566 99.3453345,8.60333296 99.112,8.678 C98.8786655,8.75266704 98.6593344,8.85766599 98.454,8.993 C98.2486656,9.12833401 98.0666675,9.29166571 97.908,9.483 C97.7493325,9.67433429 97.6233338,9.88199888 97.53,10.106 L97.502,10.106 L97.502,8.762 L95.612,8.762 Z M102.57,12.388 C102.57,12.0986652 102.598,11.8140014 102.654,11.534 C102.71,11.2539986 102.805666,11.0066677 102.941,10.792 C103.076334,10.5773323 103.255999,10.402334 103.48,10.267 C103.704001,10.131666 103.983998,10.064 104.32,10.064 C104.656002,10.064 104.938332,10.131666 105.167,10.267 C105.395668,10.402334 105.577666,10.5773323 105.713,10.792 C105.848334,11.0066677 105.944,11.2539986 106,11.534 C106.056,11.8140014 106.084,12.0986652 106.084,12.388 C106.084,12.6773348 106.056,12.9596653 106,13.235 C105.944,13.5103347 105.848334,13.7576656 105.713,13.977 C105.577666,14.1963344 105.395668,14.3713327 105.167,14.502 C104.938332,14.6326673 104.656002,14.698 104.32,14.698 C103.983998,14.698 103.704001,14.6326673 103.48,14.502 C103.255999,14.3713327 103.076334,14.1963344 102.941,13.977 C102.805666,13.7576656 102.71,13.5103347 102.654,13.235 C102.598,12.9596653 102.57,12.6773348 102.57,12.388 L102.57,12.388 Z M100.582,12.388 C100.582,12.9666696 100.670666,13.489331 100.848,13.956 C101.025334,14.422669 101.277332,14.821665 101.604,15.153 C101.930668,15.484335 102.322664,15.7386658 102.78,15.916 C103.237336,16.0933342 103.750664,16.182 104.32,16.182 C104.889336,16.182 105.404998,16.0933342 105.867,15.916 C106.329002,15.7386658 106.723332,15.484335 107.05,15.153 C107.376668,14.821665 107.628666,14.422669 107.806,13.956 C107.983334,13.489331 108.072,12.9666696 108.072,12.388 C108.072,11.8093304 107.983334,11.2843357 107.806,10.813 C107.628666,10.3416643 107.376668,9.94033499 107.05,9.609 C106.723332,9.27766501 106.329002,9.02100091 105.867,8.839 C105.404998,8.65699909 104.889336,8.566 104.32,8.566 C103.750664,8.566 103.237336,8.65699909 102.78,8.839 C102.322664,9.02100091 101.930668,9.27766501 101.604,9.609 C101.277332,9.94033499 101.025334,10.3416643 100.848,10.813 C100.670666,11.2843357 100.582,11.8093304 100.582,12.388 L100.582,12.388 Z M111.124,12.388 C111.124,12.0986652 111.152,11.8140014 111.208,11.534 C111.264,11.2539986 111.359666,11.0066677 111.495,10.792 C111.630334,10.5773323 111.809999,10.402334 112.034,10.267 C112.258001,10.131666 112.537998,10.064 112.874,10.064 C113.210002,10.064 113.492332,10.131666 113.721,10.267 C113.949668,10.402334 114.131666,10.5773323 114.267,10.792 C114.402334,11.0066677 114.498,11.2539986 114.554,11.534 C114.61,11.8140014 114.638,12.0986652 114.638,12.388 C114.638,12.6773348 114.61,12.9596653 114.554,13.235 C114.498,13.5103347 114.402334,13.7576656 114.267,13.977 C114.131666,14.1963344 113.949668,14.3713327 113.721,14.502 C113.492332,14.6326673 113.210002,14.698 112.874,14.698 C112.537998,14.698 112.258001,14.6326673 112.034,14.502 C111.809999,14.3713327 111.630334,14.1963344 111.495,13.977 C111.359666,13.7576656 111.264,13.5103347 111.208,13.235 C111.152,12.9596653 111.124,12.6773348 111.124,12.388 L111.124,12.388 Z M109.136,12.388 C109.136,12.9666696 109.224666,13.489331 109.402,13.956 C109.579334,14.422669 109.831332,14.821665 110.158,15.153 C110.484668,15.484335 110.876664,15.7386658 111.334,15.916 C111.791336,16.0933342 112.304664,16.182 112.874,16.182 C113.443336,16.182 113.958998,16.0933342 114.421,15.916 C114.883002,15.7386658 115.277332,15.484335 115.604,15.153 C115.930668,14.821665 116.182666,14.422669 116.36,13.956 C116.537334,13.489331 116.626,12.9666696 116.626,12.388 C116.626,11.8093304 116.537334,11.2843357 116.36,10.813 C116.182666,10.3416643 115.930668,9.94033499 115.604,9.609 C115.277332,9.27766501 114.883002,9.02100091 114.421,8.839 C113.958998,8.65699909 113.443336,8.566 112.874,8.566 C112.304664,8.566 111.791336,8.65699909 111.334,8.839 C110.876664,9.02100091 110.484668,9.27766501 110.158,9.609 C109.831332,9.94033499 109.579334,10.3416643 109.402,10.813 C109.224666,11.2843357 109.136,11.8093304 109.136,12.388 L109.136,12.388 Z M120.434,8.762 L120.434,6.592 L118.446,6.592 L118.446,8.762 L117.242,8.762 L117.242,10.092 L118.446,10.092 L118.446,14.362 C118.446,14.7260018 118.506666,15.0199989 118.628,15.244 C118.749334,15.4680011 118.914999,15.6406661 119.125,15.762 C119.335001,15.8833339 119.577665,15.9649998 119.853,16.007 C120.128335,16.0490002 120.419998,16.07 120.728,16.07 C120.924001,16.07 121.124666,16.0653334 121.33,16.056 C121.535334,16.0466666 121.721999,16.0280001 121.89,16 L121.89,14.46 C121.796666,14.4786668 121.698667,14.4926666 121.596,14.502 C121.493333,14.5113334 121.386001,14.516 121.274,14.516 C120.937998,14.516 120.714001,14.4600006 120.602,14.348 C120.489999,14.2359994 120.434,14.0120017 120.434,13.676 L120.434,10.092 L121.89,10.092 L121.89,8.762 L120.434,8.762 Z" id="non-root-copy" fill="#FFFFFF"></path>
            <path d="M7.756,8.762 L7.756,16 L9.744,16 L9.744,12.738 C9.744,12.4113317 9.77666634,12.1080014 9.842,11.828 C9.90733366,11.5479986 10.0169992,11.3030011 10.171,11.093 C10.3250008,10.882999 10.5279987,10.7173339 10.78,10.596 C11.0320013,10.4746661 11.3399982,10.414 11.704,10.414 C11.8253339,10.414 11.9513327,10.4209999 12.082,10.435 C12.2126673,10.4490001 12.3246662,10.4653332 12.418,10.484 L12.418,8.636 C12.2593325,8.5893331 12.1146673,8.566 11.984,8.566 C11.7319987,8.566 11.4893345,8.60333296 11.256,8.678 C11.0226655,8.75266704 10.8033344,8.85766599 10.598,8.993 C10.3926656,9.12833401 10.2106675,9.29166571 10.052,9.483 C9.89333254,9.67433429 9.7673338,9.88199888 9.674,10.106 L9.646,10.106 L9.646,8.762 L7.756,8.762 Z M19.992,16 L19.992,8.762 L18.004,8.762 L18.004,12.556 C18.004,13.293337 17.8826679,13.8229984 17.64,14.145 C17.3973321,14.4670016 17.005336,14.628 16.464,14.628 C15.9879976,14.628 15.6566676,14.4810015 15.47,14.187 C15.2833324,13.8929985 15.19,13.4473363 15.19,12.85 L15.19,8.762 L13.202,8.762 L13.202,13.214 C13.202,13.6620022 13.2416663,14.0703315 13.321,14.439 C13.4003337,14.8076685 13.537999,15.1203321 13.734,15.377 C13.930001,15.633668 14.1983316,15.8319993 14.539,15.972 C14.8796684,16.1120007 15.3159973,16.182 15.848,16.182 C16.2680021,16.182 16.6786647,16.0886676 17.08,15.902 C17.4813353,15.7153324 17.8079987,15.4120021 18.06,14.992 L18.102,14.992 L18.102,16 L19.992,16 Z M21.504,8.762 L21.504,16 L23.492,16 L23.492,12.206 C23.492,11.468663 23.6133321,10.9390016 23.856,10.617 C24.0986679,10.2949984 24.490664,10.134 25.032,10.134 C25.5080024,10.134 25.8393324,10.2809985 26.026,10.575 C26.2126676,10.8690015 26.306,11.3146637 26.306,11.912 L26.306,16 L28.294,16 L28.294,11.548 C28.294,11.0999978 28.2543337,10.6916685 28.175,10.323 C28.0956663,9.95433149 27.958001,9.64166795 27.762,9.385 C27.565999,9.12833205 27.2976684,8.92766739 26.957,8.783 C26.6163316,8.63833261 26.1800027,8.566 25.648,8.566 C25.2279979,8.566 24.8173353,8.66166571 24.416,8.853 C24.0146647,9.04433429 23.6880013,9.3499979 23.436,9.77 L23.394,9.77 L23.394,8.762 L21.504,8.762 Z M33.614,10.988 C33.6420001,10.521331 33.7586656,10.1340015 33.964,9.826 C34.1693344,9.51799846 34.4306651,9.2706676 34.748,9.084 C35.0653349,8.8973324 35.4223313,8.76433373 35.819,8.685 C36.2156686,8.60566627 36.6146647,8.566 37.016,8.566 C37.3800018,8.566 37.7486648,8.59166641 38.122,8.643 C38.4953352,8.69433359 38.8359985,8.79466592 39.144,8.944 C39.4520015,9.09333408 39.703999,9.30099867 39.9,9.567 C40.096001,9.83300133 40.194,10.1853311 40.194,10.624 L40.194,14.39 C40.194,14.7166683 40.2126665,15.0293318 40.25,15.328 C40.2873335,15.6266682 40.3526662,15.8506659 40.446,16 L38.43,16 C38.3926665,15.8879994 38.3623334,15.7736673 38.339,15.657 C38.3156665,15.5403328 38.2993334,15.4213339 38.29,15.3 C37.9726651,15.6266683 37.5993355,15.8553327 37.17,15.986 C36.7406645,16.1166673 36.3020022,16.182 35.854,16.182 C35.5086649,16.182 35.1866682,16.1400004 34.888,16.056 C34.5893318,15.9719996 34.3280011,15.8413342 34.104,15.664 C33.8799989,15.4866658 33.7050006,15.262668 33.579,14.992 C33.4529994,14.721332 33.39,14.3993352 33.39,14.026 C33.39,13.6153313 33.4623326,13.2770013 33.607,13.011 C33.7516674,12.7449987 33.9383322,12.5326675 34.167,12.374 C34.3956678,12.2153325 34.6569985,12.0963337 34.951,12.017 C35.2450015,11.9376663 35.5413318,11.8746669 35.84,11.828 C36.1386682,11.7813331 36.4326652,11.7440001 36.722,11.716 C37.0113348,11.6879999 37.2679989,11.6460003 37.492,11.59 C37.7160011,11.5339997 37.8933327,11.4523339 38.024,11.345 C38.1546673,11.2376661 38.2153334,11.0813344 38.206,10.876 C38.206,10.6613323 38.1710003,10.4910006 38.101,10.365 C38.0309996,10.2389994 37.9376672,10.1410004 37.821,10.071 C37.7043327,10.0009997 37.5690008,9.95433345 37.415,9.931 C37.2609992,9.90766655 37.0953342,9.896 36.918,9.896 C36.525998,9.896 36.2180011,9.97999916 35.994,10.148 C35.7699989,10.3160008 35.6393335,10.595998 35.602,10.988 L33.614,10.988 Z M38.206,12.458 C38.1219996,12.532667 38.0170006,12.5909998 37.891,12.633 C37.7649994,12.6750002 37.6296674,12.7099999 37.485,12.738 C37.3403326,12.7660001 37.1886675,12.7893332 37.03,12.808 C36.8713325,12.8266668 36.7126675,12.8499999 36.554,12.878 C36.4046659,12.9060001 36.2576674,12.9433331 36.113,12.99 C35.9683326,13.0366669 35.8423339,13.0996663 35.735,13.179 C35.6276661,13.2583337 35.5413337,13.3586661 35.476,13.48 C35.4106663,13.6013339 35.378,13.7553324 35.378,13.942 C35.378,14.1193342 35.4106663,14.2686661 35.476,14.39 C35.5413337,14.5113339 35.6299994,14.6069997 35.742,14.677 C35.8540006,14.7470004 35.9846659,14.7959999 36.134,14.824 C36.2833341,14.8520001 36.4373325,14.866 36.596,14.866 C36.988002,14.866 37.2913323,14.8006673 37.506,14.67 C37.7206677,14.5393327 37.8793328,14.3830009 37.982,14.201 C38.0846672,14.0189991 38.1476665,13.8346676 38.171,13.648 C38.1943334,13.4613324 38.206,13.3120006 38.206,13.2 L38.206,12.458 Z M43.274,13.648 L41.384,13.648 C41.4026668,14.1333358 41.5123323,14.5369984 41.713,14.859 C41.9136677,15.1810016 42.1703318,15.439999 42.483,15.636 C42.7956682,15.832001 43.1526647,15.9719996 43.554,16.056 C43.9553353,16.1400004 44.3659979,16.182 44.786,16.182 C45.1966687,16.182 45.6003313,16.1423337 45.997,16.063 C46.3936686,15.9836663 46.7459985,15.846001 47.054,15.65 C47.3620015,15.453999 47.6116657,15.1950016 47.803,14.873 C47.9943343,14.5509984 48.09,14.1520024 48.09,13.676 C48.09,13.3399983 48.0246673,13.0576678 47.894,12.829 C47.7633327,12.6003322 47.5906677,12.4090008 47.376,12.255 C47.1613323,12.1009992 46.9163347,11.9773338 46.641,11.884 C46.3656653,11.7906662 46.0833348,11.7113337 45.794,11.646 C45.5139986,11.5806663 45.238668,11.5200003 44.968,11.464 C44.697332,11.4079997 44.457001,11.3450004 44.247,11.275 C44.0369989,11.2049997 43.8666673,11.1140006 43.736,11.002 C43.6053327,10.8899994 43.54,10.7453342 43.54,10.568 C43.54,10.4186659 43.577333,10.2996671 43.652,10.211 C43.726667,10.1223329 43.8176661,10.0546669 43.925,10.008 C44.0323339,9.9613331 44.1513327,9.93100007 44.282,9.917 C44.4126673,9.90299993 44.5339994,9.896 44.646,9.896 C45.0006684,9.896 45.3086654,9.96366599 45.57,10.099 C45.8313346,10.234334 45.9759999,10.4933314 46.004,10.876 L47.894,10.876 C47.8566665,10.4279978 47.7423343,10.0570015 47.551,9.763 C47.3596657,9.46899853 47.1193348,9.23333422 46.83,9.056 C46.5406652,8.87866578 46.2116685,8.75266704 45.843,8.678 C45.4743315,8.60333296 45.094002,8.566 44.702,8.566 C44.309998,8.566 43.9273352,8.60099965 43.554,8.671 C43.1806648,8.74100035 42.8446682,8.86233247 42.546,9.035 C42.2473318,9.20766753 42.0070009,9.44333184 41.825,9.742 C41.6429991,10.0406682 41.552,10.423331 41.552,10.89 C41.552,11.2073349 41.6173327,11.4756656 41.748,11.695 C41.8786673,11.9143344 42.0513323,12.0963326 42.266,12.241 C42.4806677,12.3856674 42.7256653,12.5023329 43.001,12.591 C43.2763347,12.6796671 43.5586652,12.7566663 43.848,12.822 C44.5573369,12.9713341 45.1103313,13.1206659 45.507,13.27 C45.9036686,13.4193341 46.102,13.6433318 46.102,13.942 C46.102,14.1193342 46.0600004,14.2663328 45.976,14.383 C45.8919996,14.4996673 45.7870006,14.5929997 45.661,14.663 C45.5349994,14.7330004 45.3950008,14.7843332 45.241,14.817 C45.0869992,14.8496668 44.9400007,14.866 44.8,14.866 C44.603999,14.866 44.4150009,14.8426669 44.233,14.796 C44.0509991,14.7493331 43.8900007,14.6770005 43.75,14.579 C43.6099993,14.4809995 43.4956671,14.3550008 43.407,14.201 C43.3183329,14.0469992 43.274,13.8626677 43.274,13.648 L43.274,13.648 Z" id="run-as" fill="#FFFFFF"></path>
        </g>
    </g>
</svg>