<svg width="746" height="31" viewBox="0 0 746 31" xmlns="http://www.w3.org/2000/svg"><title>docker-warranty-notice</title><g fill="none" fill-rule="evenodd"><path fill="#F8A13C" d="M0 0h746v31H0z"/><path d="M38.8 22.116L30.665 7.73C30.408 7.274 29.972 7 29.5 7s-.908.273-1.166.73L20.2 22.112c-.255.453-.267.974-.03 1.384.236.41.686.66 1.204.66h16.252c.518 0 .968-.25 1.205-.66.237-.41.225-.928-.03-1.38zm-9.354-10.513c.623 0 1.128.51 1.128 1.136v4.086c0 .627-.505 1.135-1.128 1.135-.622 0-1.127-.507-1.127-1.134V12.74c0-.628.504-1.137 1.126-1.137zm.054 7.64c.623 0 1.127.51 1.127 1.136 0 .626-.504 1.134-1.127 1.134-.622 0-1.127-.508-1.127-1.135 0-.628.505-1.136 1.127-1.136z" fill="#FFF"/><text font-family="Helvetica" font-size="16" fill="#FFF"><tspan x="52" y="21">Provided without warranty and support. Use at own risk. Mind used Software License Terms.</tspan></text><path fill="#E39100" d="M0 0h9v31H0z"/></g></svg>
