<?xml version="1.0" encoding="UTF-8" standalone="no"?>
<svg width="145px" height="23px" viewBox="0 0 145 23" version="1.1" xmlns="http://www.w3.org/2000/svg" xmlns:xlink="http://www.w3.org/1999/xlink">
    <!-- Generator: Sketch 40.3 (33839) - http://www.bohemiancoding.com/sketch -->
    <title>docker</title>
    <desc>Created with Sketch.</desc>
    <defs></defs>
    <g id="Page-1" stroke="none" stroke-width="1" fill="none" fill-rule="evenodd">
        <g id="docker">
            <rect id="Rectangle" fill="#627FFF" x="0" y="0" width="145" height="23"></rect>
            <rect id="Rectangle" fill="#555555" x="0" y="0" width="72" height="23"></rect>
            <path d="M89.518,9.966 L91.422,9.966 C91.422,9.70466536 91.4476664,9.44100133 91.499,9.175 C91.5503336,8.90899867 91.6366661,8.66633443 91.758,8.447 C91.8793339,8.22766557 92.0403323,8.05033401 92.241,7.915 C92.4416677,7.77966599 92.6866652,7.712 92.976,7.712 C93.4053355,7.712 93.7576653,7.84499867 94.033,8.111 C94.3083347,8.37700133 94.446,8.74799762 94.446,9.224 C94.446,9.52266816 94.378334,9.7886655 94.243,10.022 C94.107666,10.2553345 93.9396677,10.4653324 93.739,10.652 C93.5383323,10.8386676 93.3166679,11.0089992 93.074,11.163 C92.8313321,11.3170008 92.6026677,11.4686659 92.388,11.618 C91.9679979,11.9073348 91.5690019,12.1919986 91.191,12.472 C90.8129981,12.7520014 90.4840014,13.057665 90.204,13.389 C89.9239986,13.720335 89.7023341,14.0959979 89.539,14.516 C89.3756658,14.9360021 89.294,15.4306638 89.294,16 L96.49,16 L96.49,14.292 L91.856,14.292 C92.0986679,13.9559983 92.3786651,13.6620013 92.696,13.41 C93.0133349,13.1579987 93.3399983,12.9223344 93.676,12.703 C94.0120017,12.4836656 94.345665,12.2620011 94.677,12.038 C95.008335,11.8139989 95.3046654,11.5643347 95.566,11.289 C95.8273346,11.0136653 96.0373325,10.6986684 96.196,10.344 C96.3546675,9.98933156 96.434,9.56466914 96.434,9.07 C96.434,8.59399762 96.3430009,8.16466858 96.161,7.782 C95.9789991,7.39933142 95.7340015,7.07733464 95.426,6.816 C95.1179985,6.55466536 94.761002,6.3540007 94.355,6.214 C93.948998,6.0739993 93.5220022,6.004 93.074,6.004 C92.4859971,6.004 91.9656689,6.10433233 91.513,6.305 C91.0603311,6.50566767 90.6846682,6.78566487 90.386,7.145 C90.0873318,7.50433513 89.8633341,7.92433093 89.714,8.405 C89.5646659,8.88566907 89.4993332,9.4059972 89.518,9.966 L89.518,9.966 Z M99.192,8.86 C99.192,8.63599888 99.2316663,8.44000084 99.311,8.272 C99.3903337,8.10399916 99.4999993,7.96400056 99.64,7.852 C99.7800007,7.73999944 99.9409991,7.65366697 100.123,7.593 C100.305001,7.53233303 100.493999,7.502 100.69,7.502 C100.998002,7.502 101.247666,7.5486662 101.439,7.642 C101.630334,7.7353338 101.779666,7.8519993 101.887,7.992 C101.994334,8.1320007 102.066666,8.27899923 102.104,8.433 C102.141334,8.58700077 102.16,8.72933268 102.16,8.86 C102.16,9.2800021 102.020001,9.59966557 101.74,9.819 C101.459999,10.0383344 101.110002,10.148 100.69,10.148 C100.288665,10.148 99.9386682,10.0383344 99.64,9.819 C99.3413318,9.59966557 99.192,9.2800021 99.192,8.86 L99.192,8.86 Z M97.386,8.678 C97.386,9.16333576 97.5073321,9.58799818 97.75,9.952 C97.9926679,10.3160018 98.3519976,10.5633327 98.828,10.694 L98.828,10.722 C98.2399971,10.8620007 97.7850016,11.1419979 97.463,11.562 C97.1409984,11.9820021 96.98,12.5046635 96.98,13.13 C96.98,13.6620027 97.0849989,14.1193314 97.295,14.502 C97.505001,14.8846686 97.7849982,15.2019987 98.135,15.454 C98.4850017,15.7060013 98.8816644,15.8903327 99.325,16.007 C99.7683355,16.1236672 100.227998,16.182 100.704,16.182 C101.161336,16.182 101.609331,16.1190006 102.048,15.993 C102.486669,15.8669994 102.878665,15.6780013 103.224,15.426 C103.569335,15.1739987 103.846999,14.8566686 104.057,14.474 C104.267001,14.0913314 104.372,13.6386693 104.372,13.116 C104.372,12.4999969 104.213335,11.9796688 103.896,11.555 C103.578665,11.1303312 103.126003,10.8526673 102.538,10.722 L102.538,10.694 C103.014002,10.5353325 103.370999,10.2740018 103.609,9.91 C103.847001,9.54599818 103.966,9.12133576 103.966,8.636 C103.966,8.39333212 103.910001,8.12033485 103.798,7.817 C103.685999,7.51366515 103.501668,7.22900133 103.245,6.963 C102.988332,6.69699867 102.650002,6.4706676 102.23,6.284 C101.809998,6.0973324 101.29667,6.004 100.69,6.004 C100.288665,6.004 99.892002,6.05999944 99.5,6.172 C99.107998,6.28400056 98.7556682,6.45199888 98.443,6.676 C98.1303318,6.90000112 97.876001,7.17999832 97.68,7.516 C97.483999,7.85200168 97.386,8.23933114 97.386,8.678 L97.386,8.678 Z M98.968,13.032 C98.968,12.5279975 99.1359983,12.1430013 99.472,11.877 C99.8080017,11.6109987 100.218664,11.478 100.704,11.478 C100.937334,11.478 101.154332,11.515333 101.355,11.59 C101.555668,11.664667 101.732999,11.7719993 101.887,11.912 C102.041001,12.0520007 102.162333,12.2176657 102.251,12.409 C102.339667,12.6003343 102.384,12.8126655 102.384,13.046 C102.384,13.2886679 102.342,13.5126656 102.258,13.718 C102.174,13.9233344 102.055001,14.0983326 101.901,14.243 C101.746999,14.3876674 101.569668,14.4996663 101.369,14.579 C101.168332,14.6583337 100.946668,14.698 100.704,14.698 C100.470665,14.698 100.246668,14.6583337 100.032,14.579 C99.8173323,14.4996663 99.6330008,14.3876674 99.479,14.243 C99.3249992,14.0983326 99.2013338,13.9233344 99.108,13.718 C99.0146662,13.5126656 98.968,13.2840013 98.968,13.032 L98.968,13.032 Z M109.426,6.004 L109.426,16 L111.484,16 L111.484,8.986 L111.512,8.986 L113.962,16 L115.656,16 L118.106,8.916 L118.134,8.916 L118.134,16 L120.192,16 L120.192,6.004 L117.098,6.004 L114.886,12.878 L114.858,12.878 L112.52,6.004 L109.426,6.004 Z M124.322,10.05 L124.322,7.712 L126.38,7.712 C126.576001,7.712 126.764999,7.72833317 126.947,7.761 C127.129001,7.79366683 127.289999,7.85199958 127.43,7.936 C127.570001,8.02000042 127.682,8.13666592 127.766,8.286 C127.85,8.43533408 127.892,8.6266655 127.892,8.86 C127.892,9.2800021 127.766001,9.5833324 127.514,9.77 C127.261999,9.9566676 126.940002,10.05 126.548,10.05 L124.322,10.05 Z M122.124,6.004 L122.124,16 L126.968,16 C127.416002,16 127.852331,15.9440006 128.277,15.832 C128.701669,15.7199994 129.079665,15.5473345 129.411,15.314 C129.742335,15.0806655 130.005999,14.7796685 130.202,14.411 C130.398001,14.0423315 130.496,13.6060025 130.496,13.102 C130.496,12.4766635 130.344335,11.9423355 130.041,11.499 C129.737665,11.0556644 129.278003,10.7453342 128.662,10.568 C129.110002,10.3533323 129.448332,10.0780017 129.677,9.742 C129.905668,9.40599832 130.02,8.98600252 130.02,8.482 C130.02,8.015331 129.943001,7.62333492 129.789,7.306 C129.634999,6.98866508 129.418001,6.73433429 129.138,6.543 C128.857999,6.35166571 128.522002,6.21400042 128.13,6.13 C127.737998,6.04599958 127.304002,6.004 126.828,6.004 L122.124,6.004 Z M124.322,14.292 L124.322,11.548 L126.716,11.548 C127.192002,11.548 127.574665,11.6576656 127.864,11.877 C128.153335,12.0963344 128.298,12.4626641 128.298,12.976 C128.298,13.2373346 128.253667,13.4519992 128.165,13.62 C128.076333,13.7880008 127.957334,13.9209995 127.808,14.019 C127.658666,14.1170005 127.486001,14.1869998 127.29,14.229 C127.093999,14.2710002 126.888668,14.292 126.674,14.292 L124.322,14.292 Z" id="28-MB-Copy" fill="#FFFFFF"></path>
            <path d="M19.8,7.642 L19.8,6.004 L17.812,6.004 L17.812,7.642 L19.8,7.642 Z M17.812,8.762 L17.812,16 L19.8,16 L19.8,8.762 L17.812,8.762 Z M21.424,8.762 L21.424,16 L23.412,16 L23.412,11.8 C23.412,11.4453316 23.4633328,11.1583344 23.566,10.939 C23.6686672,10.7196656 23.7923326,10.5516672 23.937,10.435 C24.0816674,10.3183327 24.2309992,10.2390002 24.385,10.197 C24.5390008,10.1549998 24.6626662,10.134 24.756,10.134 C25.0733349,10.134 25.3136659,10.1876661 25.477,10.295 C25.6403342,10.4023339 25.7569997,10.5446658 25.827,10.722 C25.8970004,10.8993342 25.9366666,11.0929989 25.946,11.303 C25.9553334,11.513001 25.96,11.7253323 25.96,11.94 L25.96,16 L27.948,16 L27.948,11.968 C27.948,11.7439989 27.9643332,11.5223344 27.997,11.303 C28.0296668,11.0836656 28.0949995,10.8876675 28.193,10.715 C28.2910005,10.5423325 28.4263325,10.4023339 28.599,10.295 C28.7716675,10.1876661 28.9979986,10.134 29.278,10.134 C29.5580014,10.134 29.7796659,10.1806662 29.943,10.274 C30.1063342,10.3673338 30.2299996,10.4933325 30.314,10.652 C30.3980004,10.8106675 30.4493332,10.9973323 30.468,11.212 C30.4866668,11.4266677 30.496,11.6553321 30.496,11.898 L30.496,16 L32.484,16 L32.484,11.156 C32.484,10.689331 32.4186673,10.290335 32.288,9.959 C32.1573327,9.62766501 31.9753345,9.35933436 31.742,9.154 C31.5086655,8.94866564 31.2286683,8.7993338 30.902,8.706 C30.5753317,8.6126662 30.2206686,8.566 29.838,8.566 C29.3339975,8.566 28.8976685,8.68733212 28.529,8.93 C28.1603315,9.17266788 27.8686677,9.45266508 27.654,9.77 C27.457999,9.32199776 27.1710019,9.00933422 26.793,8.832 C26.4149981,8.65466578 25.9973356,8.566 25.54,8.566 C25.0639976,8.566 24.6416685,8.66866564 24.273,8.874 C23.9043315,9.07933436 23.5893346,9.3686648 23.328,9.742 L23.3,9.742 L23.3,8.762 L21.424,8.762 Z M33.968,10.988 C33.9960001,10.521331 34.1126656,10.1340015 34.318,9.826 C34.5233344,9.51799846 34.7846651,9.2706676 35.102,9.084 C35.4193349,8.8973324 35.7763314,8.76433373 36.173,8.685 C36.5696687,8.60566627 36.9686647,8.566 37.37,8.566 C37.7340018,8.566 38.1026648,8.59166641 38.476,8.643 C38.8493352,8.69433359 39.1899985,8.79466592 39.498,8.944 C39.8060015,9.09333408 40.057999,9.30099867 40.254,9.567 C40.450001,9.83300133 40.548,10.1853311 40.548,10.624 L40.548,14.39 C40.548,14.7166683 40.5666665,15.0293318 40.604,15.328 C40.6413335,15.6266682 40.7066662,15.8506659 40.8,16 L38.784,16 C38.7466665,15.8879994 38.7163335,15.7736672 38.693,15.657 C38.6696666,15.5403327 38.6533334,15.4213339 38.644,15.3 C38.3266651,15.6266683 37.9533355,15.8553327 37.524,15.986 C37.0946645,16.1166673 36.6560022,16.182 36.208,16.182 C35.8626649,16.182 35.5406682,16.1400004 35.242,16.056 C34.9433318,15.9719996 34.6820011,15.8413342 34.458,15.664 C34.2339989,15.4866658 34.0590006,15.262668 33.933,14.992 C33.8069994,14.721332 33.744,14.3993352 33.744,14.026 C33.744,13.6153313 33.8163326,13.2770013 33.961,13.011 C34.1056674,12.7449987 34.2923322,12.5326675 34.521,12.374 C34.7496678,12.2153325 35.0109985,12.0963337 35.305,12.017 C35.5990015,11.9376663 35.8953318,11.8746669 36.194,11.828 C36.4926682,11.7813331 36.7866652,11.7440001 37.076,11.716 C37.3653348,11.6879999 37.6219989,11.6460003 37.846,11.59 C38.0700011,11.5339997 38.2473327,11.4523339 38.378,11.345 C38.5086673,11.2376661 38.5693334,11.0813344 38.56,10.876 C38.56,10.6613323 38.5250004,10.4910006 38.455,10.365 C38.3849997,10.2389994 38.2916673,10.1410003 38.175,10.071 C38.0583328,10.0009996 37.9230008,9.95433345 37.769,9.931 C37.6149992,9.90766655 37.4493342,9.896 37.272,9.896 C36.879998,9.896 36.5720011,9.97999916 36.348,10.148 C36.1239989,10.3160008 35.9933335,10.595998 35.956,10.988 L33.968,10.988 Z M38.56,12.458 C38.4759996,12.532667 38.3710006,12.5909998 38.245,12.633 C38.1189994,12.6750002 37.9836674,12.7099999 37.839,12.738 C37.6943326,12.7660001 37.5426675,12.7893332 37.384,12.808 C37.2253325,12.8266668 37.0666675,12.8499999 36.908,12.878 C36.7586659,12.9060001 36.6116674,12.9433331 36.467,12.99 C36.3223326,13.0366669 36.1963339,13.0996663 36.089,13.179 C35.9816661,13.2583337 35.8953337,13.3586661 35.83,13.48 C35.7646663,13.6013339 35.732,13.7553324 35.732,13.942 C35.732,14.1193342 35.7646663,14.2686661 35.83,14.39 C35.8953337,14.5113339 35.9839994,14.6069996 36.096,14.677 C36.2080006,14.7470003 36.3386659,14.7959999 36.488,14.824 C36.6373341,14.8520001 36.7913325,14.866 36.95,14.866 C37.342002,14.866 37.6453323,14.8006673 37.86,14.67 C38.0746677,14.5393327 38.2333328,14.3830009 38.336,14.201 C38.4386672,14.0189991 38.5016666,13.8346676 38.525,13.648 C38.5483335,13.4613324 38.56,13.3120006 38.56,13.2 L38.56,12.458 Z M45.462,14.292 C45.1539985,14.292 44.8973344,14.2266673 44.692,14.096 C44.4866656,13.9653327 44.3210006,13.7973344 44.195,13.592 C44.0689994,13.3866656 43.9803336,13.1556679 43.929,12.899 C43.8776664,12.642332 43.852,12.3833346 43.852,12.122 C43.852,11.851332 43.882333,11.5923346 43.943,11.345 C44.003667,11.0976654 44.101666,10.8783343 44.237,10.687 C44.372334,10.4956657 44.5403323,10.3440006 44.741,10.232 C44.9416677,10.1199994 45.1819986,10.064 45.462,10.064 C45.7886683,10.064 46.0593323,10.1246661 46.274,10.246 C46.4886677,10.3673339 46.6613327,10.5306656 46.792,10.736 C46.9226673,10.9413344 47.0159997,11.1769987 47.072,11.443 C47.1280003,11.7090013 47.156,11.9913318 47.156,12.29 C47.156,12.5513346 47.1210004,12.8009988 47.051,13.039 C46.9809997,13.2770012 46.8760007,13.4893324 46.736,13.676 C46.5959993,13.8626676 46.4186677,14.0119994 46.204,14.124 C45.9893323,14.2360006 45.7420014,14.292 45.462,14.292 L45.462,14.292 Z M49.046,15.538 L49.046,8.762 L47.156,8.762 L47.156,9.728 L47.128,9.728 C46.8853321,9.3079979 46.5843351,9.00933422 46.225,8.832 C45.8656649,8.65466578 45.4480024,8.566 44.972,8.566 C44.4679975,8.566 44.0223353,8.66399902 43.635,8.86 C43.2476647,9.05600098 42.9233346,9.31966501 42.662,9.651 C42.4006654,9.98233499 42.202334,10.3649978 42.067,10.799 C41.931666,11.2330022 41.864,11.683331 41.864,12.15 C41.864,12.6446691 41.9223328,13.1136644 42.039,13.557 C42.1556673,14.0003355 42.3399987,14.387665 42.592,14.719 C42.8440013,15.050335 43.165998,15.3116657 43.558,15.503 C43.950002,15.6943343 44.416664,15.79 44.958,15.79 C45.3966689,15.79 45.8143314,15.6990009 46.211,15.517 C46.6076687,15.3349991 46.9133323,15.0526686 47.128,14.67 L47.156,14.67 L47.156,15.622 C47.1653334,16.1353359 47.041668,16.5599983 46.785,16.896 C46.5283321,17.2320017 46.1200028,17.4 45.56,17.4 C45.2053316,17.4 44.892668,17.3276674 44.622,17.183 C44.351332,17.0383326 44.1693338,16.7793352 44.076,16.406 L42.102,16.406 C42.1300001,16.8166687 42.2443323,17.1689985 42.445,17.463 C42.6456677,17.7570015 42.8976652,17.9973324 43.201,18.184 C43.5043349,18.3706676 43.8403315,18.5083329 44.209,18.597 C44.5776685,18.6856671 44.9393316,18.73 45.294,18.73 C46.1246708,18.73 46.7873309,18.6180011 47.282,18.394 C47.7766691,18.1699989 48.1546654,17.8970016 48.416,17.575 C48.6773346,17.2529984 48.8476663,16.9053352 48.927,16.532 C49.0063337,16.1586648 49.046,15.8273348 49.046,15.538 L49.046,15.538 Z M55.514,11.604 L52.28,11.604 C52.2893334,11.4639993 52.3196664,11.3053342 52.371,11.128 C52.4223336,10.9506658 52.5109994,10.7826675 52.637,10.624 C52.7630006,10.4653325 52.930999,10.3323339 53.141,10.225 C53.3510011,10.1176661 53.6146651,10.064 53.932,10.064 C54.4173358,10.064 54.7789988,10.1946654 55.017,10.456 C55.2550012,10.7173346 55.4206662,11.0999975 55.514,11.604 L55.514,11.604 Z M52.28,12.864 L57.502,12.864 C57.5393335,12.3039972 57.4926673,11.7673359 57.362,11.254 C57.2313327,10.7406641 57.0190015,10.2833353 56.725,9.882 C56.4309985,9.48066466 56.0553356,9.16100119 55.598,8.923 C55.1406644,8.68499881 54.6040031,8.566 53.988,8.566 C53.4373306,8.566 52.9356689,8.66399902 52.483,8.86 C52.0303311,9.05600098 51.6406683,9.32433163 51.314,9.665 C50.9873317,10.0056684 50.7353342,10.409331 50.558,10.876 C50.3806658,11.342669 50.292,11.846664 50.292,12.388 C50.292,12.9480028 50.3783325,13.461331 50.551,13.928 C50.7236675,14.394669 50.9686651,14.7959983 51.286,15.132 C51.6033349,15.4680017 51.9906644,15.7269991 52.448,15.909 C52.9053356,16.0910009 53.4186638,16.182 53.988,16.182 C54.8093374,16.182 55.5093304,15.9953352 56.088,15.622 C56.6666696,15.2486648 57.0959986,14.6280043 57.376,13.76 L55.626,13.76 C55.5606663,13.9840011 55.3833348,14.1963323 55.094,14.397 C54.8046652,14.5976677 54.4593353,14.698 54.058,14.698 C53.4979972,14.698 53.0686682,14.5533348 52.77,14.264 C52.4713318,13.9746652 52.3080001,13.5080032 52.28,12.864 L52.28,12.864 Z" id="image" fill="#FFFFFF"></path>
        </g>
    </g>
</svg>